<?xml version="1.0" standalone="no"?>
<!DOCTYPE svg PUBLIC "-//W3C//DTD SVG 20010904//EN"
 "http://www.w3.org/TR/2001/REC-SVG-20010904/DTD/svg10.dtd">
<svg version="1.0" xmlns="http://www.w3.org/2000/svg"
 width="721.000000pt" height="721.000000pt" viewBox="0 0 721.000000 721.000000"
 preserveAspectRatio="xMidYMid meet">
<metadata>
Created by potrace 1.11, written by Peter Selinger 2001-2013
</metadata>
<g transform="translate(0.000000,721.000000) scale(0.100000,-0.100000)"
fill="#000000" stroke="none">
<path d="M1752 5437 c-958 -958 -1742 -1745 -1742 -1750 0 -4 788 -7 1750 -7
l1750 0 0 1750 c0 963 -3 1750 -8 1750 -4 0 -791 -784 -1750 -1743z m1638 -92
l0 -1535 -1542 0 -1543 0 1535 1535 c844 844 1538 1535 1542 1535 5 0 8 -691
8 -1535z"/>
<path d="M2480 5705 l0 -55 -110 0 c-110 0 -111 0 -121 -26 -5 -15 -64 -146
-130 -291 -170 -375 -221 -492 -215 -502 3 -5 31 -19 62 -31 54 -22 57 -22 70
-6 7 10 67 139 135 287 67 149 126 266 130 262 12 -12 79 -242 79 -269 0 -12
-67 -278 -150 -590 -82 -313 -150 -573 -150 -577 0 -4 42 -6 93 -5 l92 3 17
35 c10 19 76 192 148 384 l130 349 0 543 0 544 -40 0 -40 0 0 -55z"/>
<path d="M2615 5748 c-3 -8 -4 -252 -3 -543 l3 -530 114 -300 c63 -165 129
-338 146 -385 l30 -85 89 -3 c49 -2 92 1 96 5 4 4 -61 270 -146 591 l-153 583
39 126 c22 69 42 128 45 131 10 10 21 -12 150 -285 71 -150 132 -273 136 -273
12 0 119 50 119 55 0 7 -245 550 -318 708 l-51 107 -110 0 -110 0 -3 53 c-3
51 -4 52 -36 55 -20 2 -34 -2 -37 -10z"/>
<path d="M10 3522 c0 -9 3483 -3492 3493 -3492 4 0 7 788 7 1750 l0 1750
-1750 0 c-962 0 -1750 -3 -1750 -8z m3380 -1657 c0 -844 -3 -1535 -8 -1535 -4
0 -698 691 -1542 1535 l-1535 1535 1543 0 1542 0 0 -1535z"/>
<path d="M2336 3239 c-5 -12 -33 -119 -66 -248 l-11 -44 -134 5 -133 5 -5
-266 c-3 -202 -9 -285 -22 -345 -17 -76 -17 -83 1 -165 10 -47 20 -124 23
-171 l6 -85 170 0 170 0 3 53 c2 28 6 52 10 52 3 0 45 -24 92 -52 l85 -53 250
0 c247 0 250 0 253 21 3 20 6 21 49 12 56 -12 55 -12 83 105 25 107 18 150
-35 196 -32 28 -50 35 -144 58 -29 7 -53 32 -148 156 l-114 147 76 235 c41
130 75 241 75 248 0 7 -92 36 -243 75 -133 34 -252 65 -264 68 -15 4 -24 1
-27 -7z m269 -105 c105 -26 194 -50 198 -54 5 -4 -23 -104 -62 -222 -39 -118
-71 -224 -71 -236 0 -12 54 -91 126 -184 100 -129 132 -164 153 -166 63 -7
131 -33 150 -58 36 -45 20 -204 -19 -204 -37 0 -50 12 -50 46 0 97 -55 138
-184 137 l-80 -1 -115 96 c-64 54 -133 111 -153 127 l-37 30 14 220 c8 121 14
237 15 258 l0 37 -85 0 c-63 0 -85 3 -85 13 0 11 41 164 55 205 3 7 13 11 22
8 10 -3 104 -26 208 -52z m-105 -1059 l115 -55 173 0 c113 0 171 -3 167 -10
-4 -6 -76 -10 -184 -10 l-177 0 -100 53 -99 52 -170 2 c-200 1 -188 0 -180 13
4 6 73 10 173 10 l167 0 115 -55z"/>
<path d="M3700 1778 l0 -1753 123 120 c305 299 3377 3371 3377 3377 0 5 -787
8 -1750 8 l-1750 0 0 -1752z m1670 87 c-844 -844 -1538 -1535 -1542 -1535 -5
0 -8 691 -8 1535 l0 1535 1542 0 1543 0 -1535 -1535z"/>
<path d="M4759 3189 c-27 -29 -30 -30 -68 -18 -34 10 -44 9 -65 -5 -34 -22
-41 -37 -83 -182 -29 -103 -34 -130 -24 -150 6 -13 14 -24 19 -24 4 0 20 53
36 118 16 64 37 136 47 160 17 40 21 43 50 40 50 -5 51 -28 8 -173 -21 -72
-39 -135 -39 -141 0 -7 9 -14 20 -17 22 -6 28 9 80 203 40 150 48 169 75 176
30 7 63 -11 70 -39 4 -12 -10 -72 -30 -136 -19 -62 -33 -117 -29 -122 11 -18
42 -9 47 14 19 89 71 255 84 269 20 22 42 23 71 2 29 -20 25 -46 -24 -208 -18
-61 -30 -114 -27 -119 2 -4 12 -7 21 -5 11 2 26 36 46 102 34 108 49 126 93
110 43 -14 40 -51 -16 -262 -74 -275 -120 -520 -157 -849 l-5 -43 -95 0 c-86
0 -95 -2 -92 -17 4 -21 56 -31 160 -32 76 -1 71 -8 83 124 20 234 87 593 155
834 58 206 60 223 22 260 -23 23 -40 31 -66 31 -35 0 -36 1 -36 39 0 55 -25
82 -83 88 -32 4 -54 1 -70 -10 -20 -13 -27 -13 -48 -1 -13 7 -41 13 -62 14
-31 0 -45 -7 -68 -31z"/>
<path d="M4420 2812 c-30 -25 -35 -79 -16 -205 18 -122 20 -187 6 -187 -11 0
-17 31 -30 180 -7 67 -17 124 -26 138 -21 32 -68 30 -90 -4 -15 -22 -16 -36
-6 -122 22 -181 26 -262 13 -262 -7 0 -11 19 -11 48 0 82 -18 210 -35 241 -30
60 -109 51 -121 -13 -3 -20 -1 -111 5 -203 7 -92 21 -296 31 -453 11 -157 20
-315 20 -352 l0 -68 43 0 c74 0 559 38 565 44 3 3 0 61 -7 129 -28 289 -71
732 -81 846 -6 69 -18 137 -26 152 -30 59 -87 41 -98 -29 -3 -21 0 -83 7 -140
7 -58 9 -106 4 -109 -4 -3 -10 -3 -12 -2 -2 2 -8 67 -15 144 -14 168 -23 209
-53 230 -28 19 -40 19 -67 -3z"/>
<path d="M4775 2629 c-33 -40 -65 -102 -65 -128 0 -41 18 -28 56 41 21 38 48
74 59 78 25 9 68 -5 90 -30 26 -28 15 -62 -80 -264 -70 -148 -85 -188 -85
-228 0 -26 4 -48 9 -48 9 0 193 425 205 474 17 70 -42 136 -122 136 -33 0 -45
-6 -67 -31z"/>
</g>
</svg>
